<mxfile host="Electron" agent="Mozilla/5.0 (Windows NT 10.0; Win64; x64) AppleWebKit/537.36 (KHTML, like Gecko) draw.io/26.0.16 Chrome/132.0.6834.196 Electron/34.2.0 Safari/537.36" version="26.0.16">
  <diagram id="lFBXlfoR0omOy6iRZDWm" name="Architectural Design">
    <mxGraphModel dx="1434" dy="844" grid="0" gridSize="10" guides="1" tooltips="1" connect="1" arrows="1" fold="1" page="0" pageScale="1" pageWidth="850" pageHeight="1100" background="none" math="0" shadow="0">
      <root>
        <mxCell id="0" />
        <mxCell id="1" parent="0" />
        <mxCell id="45" style="edgeStyle=none;html=1;exitX=1;exitY=0.25;exitDx=0;exitDy=0;exitPerimeter=0;entryX=0.007;entryY=0.539;entryDx=0;entryDy=0;entryPerimeter=0;fontSize=25;fontColor=#FFFFFF;endArrow=classic;endFill=1;" parent="1" source="2" target="44" edge="1">
          <mxGeometry relative="1" as="geometry" />
        </mxCell>
        <mxCell id="46" value="Request" style="edgeLabel;html=1;align=center;verticalAlign=middle;resizable=0;points=[];fontSize=10;fontColor=default;labelBackgroundColor=none;" parent="45" vertex="1" connectable="0">
          <mxGeometry x="0.321" y="-2" relative="1" as="geometry">
            <mxPoint x="-26" y="-12" as="offset" />
          </mxGeometry>
        </mxCell>
        <mxCell id="47" style="edgeStyle=none;html=1;exitX=0.017;exitY=0.587;exitDx=0;exitDy=0;exitPerimeter=0;entryX=1;entryY=0.75;entryDx=0;entryDy=0;entryPerimeter=0;fontSize=10;fontColor=#FFFFFF;endArrow=classic;endFill=1;" parent="1" source="44" target="2" edge="1">
          <mxGeometry relative="1" as="geometry" />
        </mxCell>
        <mxCell id="48" value="Response" style="edgeLabel;html=1;align=center;verticalAlign=middle;resizable=0;points=[];fontSize=10;fontColor=default;labelBackgroundColor=none;" parent="47" vertex="1" connectable="0">
          <mxGeometry x="-0.172" y="3" relative="1" as="geometry">
            <mxPoint x="-13" y="7" as="offset" />
          </mxGeometry>
        </mxCell>
        <mxCell id="2" value="Android / IOS" style="outlineConnect=0;dashed=0;verticalLabelPosition=bottom;verticalAlign=top;align=center;html=1;shape=mxgraph.aws3.mobile_client;fillColor=#D2D3D3;gradientColor=none;" parent="1" vertex="1">
          <mxGeometry x="217" y="529" width="40.5" height="60" as="geometry" />
        </mxCell>
        <mxCell id="5" value="Web Browser" style="aspect=fixed;html=1;points=[];align=center;image;fontSize=12;image=img/lib/azure2/general/Browser.svg;labelBackgroundColor=none;" parent="1" vertex="1">
          <mxGeometry x="207.5" y="680" width="65" height="52" as="geometry" />
        </mxCell>
        <mxCell id="68" value="" style="edgeStyle=none;html=1;fontSize=10;fontColor=#FFFFFF;endArrow=none;endFill=0;" parent="1" source="28" target="67" edge="1">
          <mxGeometry relative="1" as="geometry" />
        </mxCell>
        <mxCell id="70" value="" style="edgeStyle=none;html=1;fontSize=10;fontColor=#FFFFFF;endArrow=none;endFill=0;" parent="1" source="28" target="69" edge="1">
          <mxGeometry relative="1" as="geometry" />
        </mxCell>
        <mxCell id="WM2yiqtqKNkTK6OSFWhN-114" value="" style="edgeStyle=orthogonalEdgeStyle;rounded=0;orthogonalLoop=1;jettySize=auto;html=1;" parent="1" source="28" target="69" edge="1">
          <mxGeometry relative="1" as="geometry" />
        </mxCell>
        <mxCell id="WM2yiqtqKNkTK6OSFWhN-115" value="" style="edgeStyle=orthogonalEdgeStyle;rounded=0;orthogonalLoop=1;jettySize=auto;html=1;" parent="1" source="28" target="69" edge="1">
          <mxGeometry relative="1" as="geometry" />
        </mxCell>
        <mxCell id="28" value="&amp;nbsp;Rafeeq" style="shape=mxgraph.signs.transportation.car_2;html=1;pointerEvents=1;fillColor=#1ba1e2;strokeColor=#006EAF;verticalLabelPosition=bottom;verticalAlign=top;align=center;fillStyle=solid;fontColor=default;" parent="1" vertex="1">
          <mxGeometry x="190" y="330" width="100" height="33" as="geometry" />
        </mxCell>
        <mxCell id="103" style="edgeStyle=none;html=1;entryX=0.001;entryY=0.275;entryDx=0;entryDy=0;entryPerimeter=0;exitX=1.002;exitY=0.338;exitDx=0;exitDy=0;exitPerimeter=0;" parent="1" source="44" target="100" edge="1">
          <mxGeometry relative="1" as="geometry">
            <mxPoint x="567.5" y="420" as="sourcePoint" />
          </mxGeometry>
        </mxCell>
        <mxCell id="44" value="" style="rounded=0;whiteSpace=wrap;html=1;labelBackgroundColor=none;fontColor=#FFFFFF;fontSize=25;fillColor=none;" parent="1" vertex="1">
          <mxGeometry x="435.5" y="210" width="120" height="620" as="geometry" />
        </mxCell>
        <mxCell id="49" style="edgeStyle=none;html=1;exitX=1.036;exitY=0.335;exitDx=0;exitDy=0;exitPerimeter=0;entryX=0.017;entryY=0.786;entryDx=0;entryDy=0;entryPerimeter=0;fontSize=25;fontColor=#FFFFFF;endArrow=classic;endFill=1;" parent="1" source="5" target="44" edge="1">
          <mxGeometry relative="1" as="geometry">
            <mxPoint x="255.46000000000004" y="798.88" as="sourcePoint" />
            <mxPoint x="396.29999999999995" y="799.0600000000001" as="targetPoint" />
          </mxGeometry>
        </mxCell>
        <mxCell id="50" value="Request" style="edgeLabel;align=center;verticalAlign=middle;resizable=0;points=[];fontSize=10;fontColor=default;labelBackgroundColor=none;html=1;" parent="49" vertex="1" connectable="0">
          <mxGeometry x="0.321" y="-2" relative="1" as="geometry">
            <mxPoint x="-34" y="-19" as="offset" />
          </mxGeometry>
        </mxCell>
        <mxCell id="51" style="edgeStyle=none;html=1;exitX=-0.002;exitY=0.82;exitDx=0;exitDy=0;exitPerimeter=0;entryX=1;entryY=0.742;entryDx=0;entryDy=0;entryPerimeter=0;fontSize=10;fontColor=#FFFFFF;endArrow=classic;endFill=1;" parent="1" source="44" target="5" edge="1">
          <mxGeometry relative="1" as="geometry">
            <mxPoint x="397.5" y="828.82" as="sourcePoint" />
            <mxPoint x="255.46000000000004" y="828.88" as="targetPoint" />
          </mxGeometry>
        </mxCell>
        <mxCell id="52" value="Response" style="edgeLabel;html=1;align=center;verticalAlign=middle;resizable=0;points=[];fontSize=10;fontColor=default;" parent="51" vertex="1" connectable="0">
          <mxGeometry x="-0.172" y="3" relative="1" as="geometry">
            <mxPoint x="-18" y="4" as="offset" />
          </mxGeometry>
        </mxCell>
        <mxCell id="53" style="edgeStyle=none;html=1;fontSize=10;fontColor=#FFFFFF;endArrow=classic;endFill=1;exitX=1;exitY=0.75;exitDx=0;exitDy=0;entryX=-0.005;entryY=0.403;entryDx=0;entryDy=0;entryPerimeter=0;" parent="1" source="69" edge="1">
          <mxGeometry relative="1" as="geometry">
            <mxPoint x="197.5" y="372" as="sourcePoint" />
            <mxPoint x="434.9000000000001" y="441.8599999999999" as="targetPoint" />
            <Array as="points" />
          </mxGeometry>
        </mxCell>
        <mxCell id="54" value="Response" style="edgeLabel;html=1;align=center;verticalAlign=middle;resizable=0;points=[];fontSize=10;fontColor=default;labelBackgroundColor=none;" parent="53" vertex="1" connectable="0">
          <mxGeometry x="-0.172" y="3" relative="1" as="geometry">
            <mxPoint x="10" y="14" as="offset" />
          </mxGeometry>
        </mxCell>
        <mxCell id="55" style="edgeStyle=none;html=1;entryX=1;entryY=0.25;entryDx=0;entryDy=0;fontSize=25;fontColor=#FFFFFF;endArrow=classic;endFill=1;exitX=-0.005;exitY=0.371;exitDx=0;exitDy=0;exitPerimeter=0;" parent="1" target="69" edge="1">
          <mxGeometry relative="1" as="geometry">
            <mxPoint x="434.9000000000001" y="422.02" as="sourcePoint" />
            <mxPoint x="237.5" y="394.44" as="targetPoint" />
            <Array as="points" />
          </mxGeometry>
        </mxCell>
        <mxCell id="56" value="Request" style="edgeLabel;html=1;align=center;verticalAlign=middle;resizable=0;points=[];fontSize=10;fontColor=default;labelBackgroundColor=none;" parent="55" vertex="1" connectable="0">
          <mxGeometry x="0.321" y="-2" relative="1" as="geometry">
            <mxPoint x="21" y="-8" as="offset" />
          </mxGeometry>
        </mxCell>
        <mxCell id="59" style="edgeStyle=none;html=1;exitX=1;exitY=0.5;exitDx=0;exitDy=0;fontSize=25;fontColor=#FFFFFF;endArrow=classic;endFill=1;entryX=0.007;entryY=0.082;entryDx=0;entryDy=0;entryPerimeter=0;" parent="1" edge="1">
          <mxGeometry relative="1" as="geometry">
            <mxPoint x="278.8800000000001" y="265" as="sourcePoint" />
            <mxPoint x="436.3399999999999" y="265.8399999999999" as="targetPoint" />
            <Array as="points" />
          </mxGeometry>
        </mxCell>
        <mxCell id="60" value="Request" style="edgeLabel;html=1;align=center;verticalAlign=middle;resizable=0;points=[];fontSize=10;fontColor=default;labelBackgroundColor=none;" parent="59" vertex="1" connectable="0">
          <mxGeometry x="0.321" y="-2" relative="1" as="geometry">
            <mxPoint x="-33" y="-14" as="offset" />
          </mxGeometry>
        </mxCell>
        <mxCell id="61" style="edgeStyle=none;html=1;entryX=1;entryY=0.75;entryDx=0;entryDy=0;fontSize=10;fontColor=#FFFFFF;endArrow=classic;endFill=1;" parent="1" target="67" edge="1">
          <mxGeometry relative="1" as="geometry">
            <mxPoint x="437.5" y="284" as="sourcePoint" />
            <mxPoint x="272.50000000000006" y="307.77700000000004" as="targetPoint" />
            <Array as="points" />
          </mxGeometry>
        </mxCell>
        <mxCell id="62" value="Response" style="edgeLabel;html=1;align=center;verticalAlign=middle;resizable=0;points=[];fontSize=10;fontColor=default;labelBackgroundColor=none;" parent="61" vertex="1" connectable="0">
          <mxGeometry x="-0.172" y="3" relative="1" as="geometry">
            <mxPoint x="-23" y="7" as="offset" />
          </mxGeometry>
        </mxCell>
        <mxCell id="67" value="Client Component" style="whiteSpace=wrap;html=1;verticalAlign=top;fillColor=#1f80e0;strokeColor=#FFFFFF;fontColor=default;fillStyle=solid;labelBackgroundColor=none;labelBorderColor=none;" parent="1" vertex="1">
          <mxGeometry x="201.38" y="254" width="77.5" height="40" as="geometry" />
        </mxCell>
        <mxCell id="69" value="Server Component" style="whiteSpace=wrap;html=1;verticalAlign=top;fillColor=#1f80e0;strokeColor=#FFFFFF;fontColor=default;fillStyle=solid;labelBackgroundColor=none;" parent="1" vertex="1">
          <mxGeometry x="190" y="412" width="100.25" height="41" as="geometry" />
        </mxCell>
        <mxCell id="86" value="Service Registry" style="rounded=0;whiteSpace=wrap;html=1;labelBackgroundColor=none;fontSize=10;fontColor=default;fillColor=#1F80E0;" parent="1" vertex="1">
          <mxGeometry x="617.5" y="210" width="120" height="60" as="geometry" />
        </mxCell>
        <mxCell id="98" value="Config Server" style="rounded=0;whiteSpace=wrap;html=1;labelBackgroundColor=none;fontSize=10;fontColor=default;fillColor=#1f80e0;" parent="1" vertex="1">
          <mxGeometry x="767.5" y="210" width="120" height="60" as="geometry" />
        </mxCell>
        <mxCell id="102" value="" style="group;fontSize=20;labelBackgroundColor=none;fontColor=none;noLabel=1;" parent="1" vertex="1" connectable="0">
          <mxGeometry x="709.5" y="315" width="380" height="410" as="geometry" />
        </mxCell>
        <mxCell id="100" value="" style="whiteSpace=wrap;html=1;aspect=fixed;fillColor=none;" parent="102" vertex="1">
          <mxGeometry width="380" height="380" as="geometry" />
        </mxCell>
        <mxCell id="6" value="Vision Analyzer" style="shape=hexagon;perimeter=hexagonPerimeter2;whiteSpace=wrap;html=1;fixedSize=1;rotation=0;fillColor=#1f80e0;" parent="102" vertex="1">
          <mxGeometry x="155" y="43" width="80" height="80" as="geometry" />
        </mxCell>
        <mxCell id="7" value="Audio Analyzer" style="shape=hexagon;perimeter=hexagonPerimeter2;whiteSpace=wrap;html=1;fixedSize=1;rotation=0;fillColor=#1f80e0;" parent="102" vertex="1">
          <mxGeometry x="254" y="43" width="80" height="80" as="geometry" />
        </mxCell>
        <mxCell id="10" value="Obstacle Analyzer" style="shape=hexagon;perimeter=hexagonPerimeter2;whiteSpace=wrap;html=1;fixedSize=1;rotation=0;fillColor=#1f80e0;" parent="102" vertex="1">
          <mxGeometry x="254" y="260" width="80" height="80" as="geometry" />
        </mxCell>
        <mxCell id="11" value="Rafeeq&#39;s Brain" style="shape=hexagon;perimeter=hexagonPerimeter2;whiteSpace=wrap;html=1;fixedSize=1;rotation=0;fillColor=#1f80e0;" parent="102" vertex="1">
          <mxGeometry x="150" y="150" width="80" height="80" as="geometry" />
        </mxCell>
        <mxCell id="40" value="Logger" style="shape=hexagon;perimeter=hexagonPerimeter2;whiteSpace=wrap;html=1;fixedSize=1;rotation=0;fillColor=#1f80e0;" parent="102" vertex="1">
          <mxGeometry x="155" y="260" width="80" height="80" as="geometry" />
        </mxCell>
        <mxCell id="41" value="Reporter" style="shape=hexagon;perimeter=hexagonPerimeter2;whiteSpace=wrap;html=1;fixedSize=1;rotation=0;fillColor=#1f80e0;" parent="102" vertex="1">
          <mxGeometry x="59" y="150" width="80" height="80" as="geometry" />
        </mxCell>
        <mxCell id="42" value="Steerer" style="shape=hexagon;perimeter=hexagonPerimeter2;whiteSpace=wrap;html=1;fixedSize=1;rotation=0;fillColor=#1f80e0;" parent="102" vertex="1">
          <mxGeometry x="59" y="43" width="80" height="80" as="geometry" />
        </mxCell>
        <mxCell id="43" value="Speech Sythesizer" style="shape=hexagon;perimeter=hexagonPerimeter2;whiteSpace=wrap;html=1;fixedSize=1;rotation=0;fillColor=#1f80e0;" parent="102" vertex="1">
          <mxGeometry x="254" y="150" width="80" height="80" as="geometry" />
        </mxCell>
        <mxCell id="58" value="Navigator" style="shape=hexagon;perimeter=hexagonPerimeter2;whiteSpace=wrap;html=1;fixedSize=1;rotation=0;fillColor=#1f80e0;" parent="102" vertex="1">
          <mxGeometry x="59" y="260" width="80" height="80" as="geometry" />
        </mxCell>
        <mxCell id="101" value="&lt;font style=&quot;font-size: 20px;&quot;&gt;Microservices&lt;/font&gt;" style="text;html=1;strokeColor=none;fillColor=none;align=center;verticalAlign=middle;whiteSpace=wrap;rounded=0;fontColor=default;" parent="102" vertex="1">
          <mxGeometry x="115" y="380" width="150" height="30" as="geometry" />
        </mxCell>
        <mxCell id="104" style="edgeStyle=none;html=1;exitX=0.001;exitY=0.488;exitDx=0;exitDy=0;exitPerimeter=0;entryX=0.998;entryY=0.467;entryDx=0;entryDy=0;entryPerimeter=0;" parent="1" source="100" target="44" edge="1">
          <mxGeometry relative="1" as="geometry">
            <mxPoint x="565.5" y="513.22" as="sourcePoint" />
            <mxPoint x="577.5" y="500" as="targetPoint" />
          </mxGeometry>
        </mxCell>
        <mxCell id="105" style="edgeStyle=none;html=1;entryX=0.002;entryY=0.358;entryDx=0;entryDy=0;entryPerimeter=0;exitX=1.006;exitY=0.279;exitDx=0;exitDy=0;exitPerimeter=0;" parent="1" source="100" target="94" edge="1">
          <mxGeometry relative="1" as="geometry">
            <mxPoint x="1067.5" y="740" as="sourcePoint" />
            <mxPoint x="1328.36" y="740.5799999999999" as="targetPoint" />
          </mxGeometry>
        </mxCell>
        <mxCell id="106" style="edgeStyle=none;html=1;exitX=0.001;exitY=0.532;exitDx=0;exitDy=0;entryX=0.999;entryY=0.487;entryDx=0;entryDy=0;exitPerimeter=0;entryPerimeter=0;" parent="1" source="94" target="100" edge="1">
          <mxGeometry relative="1" as="geometry">
            <mxPoint x="1339.5" y="850.76" as="sourcePoint" />
            <mxPoint x="1079.5" y="850.76" as="targetPoint" />
          </mxGeometry>
        </mxCell>
        <mxCell id="107" value="" style="group;labelBackgroundColor=none;fontColor=default;fontSize=12;" parent="1" vertex="1" connectable="0">
          <mxGeometry x="1260" y="254" width="330" height="557" as="geometry" />
        </mxCell>
        <mxCell id="94" value="" style="rounded=0;whiteSpace=wrap;html=1;labelBackgroundColor=none;fontSize=10;fontColor=#FFFFFF;fillColor=none;movable=1;resizable=1;rotatable=1;deletable=1;editable=1;connectable=1;" parent="107" vertex="1">
          <mxGeometry x="40" width="250" height="460" as="geometry" />
        </mxCell>
        <mxCell id="12" value="Database Type #1" style="shape=cylinder3;whiteSpace=wrap;html=1;boundedLbl=1;backgroundOutline=1;size=15;fillColor=#1f80e0;" parent="107" vertex="1">
          <mxGeometry x="140" y="40" width="60" height="80" as="geometry" />
        </mxCell>
        <mxCell id="87" value="Database Type #2" style="shape=cylinder3;whiteSpace=wrap;html=1;boundedLbl=1;backgroundOutline=1;size=15;fillColor=#1f80e0;fontColor=default;" parent="107" vertex="1">
          <mxGeometry x="140" y="163" width="60" height="80" as="geometry" />
        </mxCell>
        <mxCell id="88" value="Database Type #N" style="shape=cylinder3;whiteSpace=wrap;html=1;boundedLbl=1;backgroundOutline=1;size=15;fillColor=#1f80e0;" parent="107" vertex="1">
          <mxGeometry x="140" y="360" width="60" height="80" as="geometry" />
        </mxCell>
        <mxCell id="92" value="" style="group;rotation=90;fillColor=default;" parent="107" vertex="1" connectable="0">
          <mxGeometry x="145" y="300" width="50" height="10" as="geometry" />
        </mxCell>
        <mxCell id="89" value="" style="shape=ellipse;fillColor=#1f80e0;strokeColor=none;html=1;labelBackgroundColor=none;fontSize=10;fontColor=#FFFFFF;rotation=90;" parent="92" vertex="1">
          <mxGeometry x="20" y="-20" width="10" height="10" as="geometry" />
        </mxCell>
        <mxCell id="90" value="" style="shape=ellipse;fillColor=#1f80e0;strokeColor=none;html=1;labelBackgroundColor=none;fontSize=10;fontColor=#FFFFFF;rotation=90;" parent="92" vertex="1">
          <mxGeometry x="20" width="10" height="10" as="geometry" />
        </mxCell>
        <mxCell id="91" value="" style="shape=ellipse;fillColor=#1f80e0;strokeColor=none;html=1;labelBackgroundColor=none;fontSize=10;fontColor=#FFFFFF;rotation=90;" parent="92" vertex="1">
          <mxGeometry x="20" y="20" width="10" height="10" as="geometry" />
        </mxCell>
        <mxCell id="114" value="&lt;span&gt;Database systems per need (SQL, NOSQL, and/or Time-Series Database Systems)&lt;/span&gt;" style="text;html=1;strokeColor=none;fillColor=none;align=center;verticalAlign=middle;whiteSpace=wrap;rounded=0;labelBackgroundColor=none;fontColor=default;fontSize=20;" parent="107" vertex="1">
          <mxGeometry x="30" y="470" width="280" height="87" as="geometry" />
        </mxCell>
        <mxCell id="108" value="API Gateway" style="text;html=1;strokeColor=none;fillColor=none;align=center;verticalAlign=middle;whiteSpace=wrap;rounded=0;fontSize=20;labelBackgroundColor=none;" parent="1" vertex="1">
          <mxGeometry x="448.5" y="840" width="94" height="50" as="geometry" />
        </mxCell>
        <mxCell id="109" value="&lt;span style=&quot;font-size: 12px;&quot;&gt;SSL&lt;/span&gt;" style="points=[[0,0.5,0],[0.24,0,0],[0.5,0.28,0],[0.995,0.475,0],[0.5,0.72,0],[0.24,1,0]];verticalLabelPosition=bottom;html=1;verticalAlign=top;aspect=fixed;align=center;pointerEvents=1;shape=mxgraph.cisco19.key;fillColor=#005073;strokeColor=none;fontSize=20;" parent="1" vertex="1">
          <mxGeometry x="470.5" y="480" width="50" height="22.5" as="geometry" />
        </mxCell>
        <mxCell id="110" value="Authentication" style="aspect=fixed;html=1;points=[];align=center;image;fontSize=12;image=img/lib/azure2/security/Conditional_Access.svg;fillColor=none;imageBackground=none;fillStyle=hatch;imageBorder=none;" parent="1" vertex="1">
          <mxGeometry x="466" y="263" width="56.00000000000001" height="68" as="geometry" />
        </mxCell>
        <mxCell id="111" value="Authorization" style="aspect=fixed;html=1;points=[];align=center;image;fontSize=12;image=img/lib/mscae/Application_Security_Groups.svg;fillStyle=hatch;fillColor=none;" parent="1" vertex="1">
          <mxGeometry x="477" y="380" width="37" height="50" as="geometry" />
        </mxCell>
        <mxCell id="112" style="edgeStyle=none;html=1;entryX=0;entryY=0.75;entryDx=0;entryDy=0;exitX=1.006;exitY=0.694;exitDx=0;exitDy=0;exitPerimeter=0;" parent="1" source="44" target="94" edge="1">
          <mxGeometry relative="1" as="geometry">
            <mxPoint x="559" y="642" as="sourcePoint" />
            <mxPoint x="976.8100000000002" y="849.9999999999998" as="targetPoint" />
            <Array as="points">
              <mxPoint x="640" y="640" />
              <mxPoint x="640" y="840" />
              <mxPoint x="1160" y="840" />
              <mxPoint x="1160" y="600" />
            </Array>
          </mxGeometry>
        </mxCell>
        <mxCell id="113" style="edgeStyle=none;html=1;exitX=0;exitY=0.835;exitDx=0;exitDy=0;exitPerimeter=0;entryX=1.016;entryY=0.759;entryDx=0;entryDy=0;entryPerimeter=0;" parent="1" source="94" target="44" edge="1">
          <mxGeometry relative="1" as="geometry">
            <mxPoint x="976.8100000000002" y="930.94" as="sourcePoint" />
            <mxPoint x="822.1900000000003" y="930.04" as="targetPoint" />
            <Array as="points">
              <mxPoint x="1200" y="640" />
              <mxPoint x="1200" y="880" />
              <mxPoint x="600" y="880" />
              <mxPoint x="600" y="680" />
            </Array>
          </mxGeometry>
        </mxCell>
      </root>
    </mxGraphModel>
  </diagram>
</mxfile>
